<svg xmlns="http://www.w3.org/2000/svg" xmlns:xlink="http://www.w3.org/1999/xlink" preserveAspectRatio="xMidYMid" width="35.875" height="39.719" viewBox="0 0 35.875 39.719">
  <defs>
    <style>
      .cls-1 {
        fill: #f7c35a;
        opacity: 0.9;
        fill-rule: evenodd;
      }
    </style>
  </defs>
  <path d="M33.312,39.707 L10.249,39.707 L5.124,39.707 C2.294,39.707 -0.001,37.485 -0.001,34.744 L-0.001,4.968 C-0.001,2.227 2.294,0.005 5.124,0.005 L10.249,0.005 L30.749,0.005 L33.312,0.005 C34.727,0.005 35.874,1.116 35.874,2.486 L35.874,4.968 L35.874,24.897 L35.874,29.782 L35.874,34.744 L35.874,35.985 L35.874,37.226 C35.874,38.596 34.727,39.707 33.312,39.707 ZM30.749,6.209 C30.749,5.524 30.176,4.968 29.468,4.968 L11.531,4.968 C10.823,4.968 10.249,5.524 10.249,6.209 L10.249,23.656 C10.249,24.341 10.823,24.897 11.531,24.897 L29.468,24.897 C30.176,24.897 30.749,24.341 30.749,23.656 L30.749,6.209 ZM30.749,31.022 C30.749,30.337 30.176,29.782 29.468,29.782 L10.249,29.782 L7.661,29.782 C6.260,29.782 5.124,30.882 5.124,32.238 L5.124,32.288 C5.124,33.645 6.260,34.744 7.661,34.744 L10.249,34.744 L29.468,34.744 C30.176,34.744 30.749,34.189 30.749,33.504 L30.749,31.022 ZM24.343,14.894 L16.656,14.894 C15.948,14.894 15.375,14.338 15.375,13.653 L15.375,11.171 C15.375,10.486 15.948,9.931 16.656,9.931 L24.343,9.931 C25.051,9.931 25.624,10.486 25.624,11.171 L25.624,13.653 C25.624,14.338 25.051,14.894 24.343,14.894 Z" class="cls-1"/>
</svg>
