<?xml version="1.0" encoding="utf-8"?>
<!-- Generator: Adobe Illustrator 19.1.0, SVG Export Plug-In . SVG Version: 6.00 Build 0)  -->
<svg version="1.1" id="Layer_1" xmlns="http://www.w3.org/2000/svg" xmlns:xlink="http://www.w3.org/1999/xlink" x="0px" y="0px"
	 viewBox="0 0 560.5 109" style="enable-background:new 0 0 560.5 109;" xml:space="preserve">
<style type="text/css">
	.st0{fill:#F38900;}
</style>
<path class="st0" d="M296.1,2.2c46.3,2.2,92.5,4.5,138.8,6.7c27.6,1.3,55.2,3.1,82.8,5.2c7,0.5,13.9,1.2,20.9,2.2
	c11.7,1.6,19.3,9.7,21.3,21.9c1.3,7.7,0.5,15.3-0.5,22.9c-0.9,7.3-2.6,14.4-3.5,21.7c-1.9,14.5-15.4,25.9-30.8,26.1
	c-20.5,0.4-41-1.2-61.4-3c-52.2-4.8-104.5-4-156.8-4.8C228.8,99.9,150.6,100,72.5,97c-16.4-0.6-33-0.6-49.1-4.9
	c-2.9-0.8-5.7-1.8-8.5-3C2.6,83.6-1.4,74.5,0.4,61.2c1.7-12.1,8-18.6,19.3-22.4c26.7-9.2,54.1-15.4,81.6-21.2
	c32.4-6.8,65-13,97.9-16.6c14.1-1.6,28.3-0.6,42.4-0.3C259.8,1,278,1.9,296.1,2.5C296.1,2.4,296.1,2.3,296.1,2.2z"/>
</svg>
