<?xml version="1.0" encoding="utf-8"?>
<!-- Generator: Adobe Illustrator 19.1.0, SVG Export Plug-In . SVG Version: 6.00 Build 0)  -->
<svg version="1.1" id="Layer_1" xmlns="http://www.w3.org/2000/svg" xmlns:xlink="http://www.w3.org/1999/xlink" x="0px" y="0px"
	 viewBox="0 0 276 44.9" style="enable-background:new 0 0 276 44.9;" xml:space="preserve">
<style type="text/css">
	.st0{fill:#F38900;}
</style>
<path class="st0" d="M160.6,1.4c41.1,1.6,70.1,2.7,99,4.7c2.5,0.2,5,0.5,7.4,1c4.5,0.9,7.7,3.9,8.4,8.2c1.4,7.9-0.4,15.7-4,22.7
	c-2.5,4.9-7.4,6.8-13,6.9c-15.5,0.2-30.9-1.7-46.4-2.2C172,41.2,131.9,41.5,91.7,41c-23.8-0.3-47.6-0.4-71.4-1.9
	c-4.7-0.3-9.3-1-13.6-2.8c-3.8-1.6-7.1-3.8-6.7-8.8c0.4-5,1.8-9,7.2-10.7c14.1-4.6,28.8-6.6,43.3-9.9C91-2.2,131.9-0.2,160.6,1.4z"
	/>
</svg>
