<?xml version="1.0" encoding="utf-8"?>
<!-- Generator: Adobe Illustrator 19.1.0, SVG Export Plug-In . SVG Version: 6.00 Build 0)  -->
<svg version="1.1" id="Layer_1" xmlns="http://www.w3.org/2000/svg" xmlns:xlink="http://www.w3.org/1999/xlink" x="0px" y="0px"
	 viewBox="0 0 242.9 44" style="enable-background:new 0 0 242.9 44;" xml:space="preserve">
<style type="text/css">
	.st0{fill:#F38900;}
</style>
<path class="st0" d="M91,42c-25.5-1-50.9-2.1-76.3-4.1C2.9,37.1-1,32.5,0.2,20.8c0.4-4,1.2-7.9,2.2-11.8c1.5-5.9,6.7-9.9,12.8-9.9
	C22.4-0.8,29.6-0.5,36.7,0c48.9,3.6,97.9,1.9,146.8,3.3c13.8,0.4,27.7,0.2,41.4,1.6c3,0.3,6,0.6,8.8,1.5c4.5,1.5,8.9,3.3,9.1,9.2
	c0.2,6.8-1.8,10.1-8.4,12.3c-20.6,6.9-42,10.2-63.3,13.9c-24.1,4.3-48.2,0.9-72.3,0.6C96.3,42.4,93.6,42.2,91,42z"/>
</svg>
