<?xml version="1.0" encoding="utf-8"?>
<!-- Generator: Adobe Illustrator 19.1.0, SVG Export Plug-In . SVG Version: 6.00 Build 0)  -->
<svg version="1.1" id="Layer_1" xmlns="http://www.w3.org/2000/svg" xmlns:xlink="http://www.w3.org/1999/xlink" x="0px" y="0px"
	 viewBox="0 0 196.9 44.8" style="enable-background:new 0 0 196.9 44.8;" xml:space="preserve">
<style type="text/css">
	.st0{fill:#F38900;}
</style>
<path class="st0" d="M101.4,44.3c-28-1.4-57.9-2.7-87.8-5.4C2.7,38-0.5,34.8,0.1,23.7C0.3,18.9,1,14.1,2,9.4C3.3,3,7.5-0.1,14.2,0
	C31,0.2,47.7,2.8,64.6,3c35.7,0.4,71.3,0.5,107,1.9c5.5,0.2,11,0.4,16.3,1.9c4.8,1.4,8.6,3.7,8.9,9.4c0.4,7.2-1.2,10.8-7.6,12.9
	C161.4,38.7,133.3,46.8,101.4,44.3z"/>
</svg>
